<svg width="43" height="64" viewBox="0 0 43 64" fill="none" xmlns="http://www.w3.org/2000/svg">
<path d="M10.75 63.9998C16.684 63.9998 21.5 59.2212 21.5 53.3332V42.6665H10.75C4.816 42.6665 0 47.4452 0 53.3332C0 59.2212 4.816 63.9998 10.75 63.9998Z" fill="#0ACF83"/>
<path d="M0 32.0002C0 26.1122 4.816 21.3335 10.75 21.3335H21.5V42.6668H10.75C4.816 42.6668 0 37.8882 0 32.0002Z" fill="#A259FF"/>
<path d="M0 10.6667C0 4.77867 4.816 0 10.75 0H21.5V21.3333H10.75C4.816 21.3333 0 16.5547 0 10.6667Z" fill="#F24E1E"/>
<path d="M21.5 0H32.25C38.184 0 43 4.77867 43 10.6667C43 16.5547 38.184 21.3333 32.25 21.3333H21.5V0Z" fill="#FF7262"/>
<path d="M43 32.0002C43 37.8882 38.184 42.6668 32.25 42.6668C26.316 42.6668 21.5 37.8882 21.5 32.0002C21.5 26.1122 26.316 21.3335 32.25 21.3335C38.184 21.3335 43 26.1122 43 32.0002Z" fill="#1ABCFE"/>
</svg>
