<svg width="365" height="258" viewBox="0 0 365 258" fill="none" xmlns="http://www.w3.org/2000/svg">
<path d="M355.605 257.799H9.12034C6.75513 257.796 4.48756 256.79 2.8151 255.001C1.14265 253.212 0.201892 250.787 0.199219 248.258V19.7594C0.201146 17.9062 0.890329 16.1295 2.11557 14.819C3.34081 13.5086 5.00204 12.7714 6.73482 12.7693H357.877C359.64 12.7714 361.33 13.5213 362.576 14.8544C363.823 16.1875 364.524 17.995 364.526 19.8803V248.258C364.523 250.787 363.583 253.212 361.91 255.001C360.238 256.79 357.97 257.796 355.605 257.799Z" fill="#F2F2F2"/>
<path d="M344.788 245.753H21.8739C17.1403 245.753 13.2893 241.896 13.2893 237.155V38.1759C13.2893 34.66 16.143 31.7996 19.6507 31.7996H346.906C350.472 31.7996 353.373 34.7072 353.373 38.2809V237.155C353.373 241.896 349.522 245.753 344.788 245.753Z" fill="white"/>
<path d="M363.629 14.7529H0.846436V9.89539C0.849851 7.35739 1.79044 4.92447 3.46186 3.13038C5.13327 1.33629 7.39902 0.327544 9.76203 0.325439H354.714C357.077 0.327523 359.343 1.33626 361.014 3.13035C362.685 4.92445 363.626 7.35738 363.629 9.89539V14.7529Z" fill="#3F3D56"/>
<path d="M18.6629 10.0304C19.9419 10.0304 20.9788 8.92151 20.9788 7.55356C20.9788 6.1856 19.9419 5.07666 18.6629 5.07666C17.3838 5.07666 16.3469 6.1856 16.3469 7.55356C16.3469 8.92151 17.3838 10.0304 18.6629 10.0304Z" fill="white"/>
<path d="M27.4536 10.0304C28.7327 10.0304 29.7696 8.92151 29.7696 7.55356C29.7696 6.1856 28.7327 5.07666 27.4536 5.07666C26.1746 5.07666 25.1377 6.1856 25.1377 7.55356C25.1377 8.92151 26.1746 10.0304 27.4536 10.0304Z" fill="white"/>
<path d="M36.2444 10.0304C37.5235 10.0304 38.5603 8.92151 38.5603 7.55356C38.5603 6.1856 37.5235 5.07666 36.2444 5.07666C34.9653 5.07666 33.9285 6.1856 33.9285 7.55356C33.9285 8.92151 34.9653 10.0304 36.2444 10.0304Z" fill="white"/>
<path d="M177.601 69.1111H114.446C113.505 69.1111 112.602 68.7111 111.936 67.999C111.27 67.287 110.896 66.3212 110.896 65.3142C110.896 64.3072 111.27 63.3415 111.936 62.6294C112.602 61.9174 113.505 61.5173 114.446 61.5173H177.601C178.543 61.5173 179.446 61.9174 180.112 62.6294C180.777 63.3415 181.151 64.3072 181.151 65.3142C181.151 66.3212 180.777 67.287 180.112 67.999C179.446 68.7111 178.543 69.1111 177.601 69.1111Z" fill="#CCCCCC"/>
<path d="M256.078 69.1111H192.923C191.981 69.1111 191.078 68.7111 190.413 67.999C189.747 67.287 189.373 66.3212 189.373 65.3142C189.373 64.3072 189.747 63.3415 190.413 62.6294C191.078 61.9174 191.981 61.5173 192.923 61.5173H256.078C257.02 61.5173 257.923 61.9174 258.588 62.6294C259.254 63.3415 259.628 64.3072 259.628 65.3142C259.628 66.3212 259.254 67.287 258.588 67.999C257.923 68.7111 257.02 69.1111 256.078 69.1111Z" fill="#CCCCCC"/>
<path d="M256.078 83.4993H146.211C145.269 83.4993 144.366 83.0992 143.7 82.3872C143.034 81.6751 142.66 80.7094 142.66 79.7024C142.66 78.6954 143.034 77.7296 143.7 77.0176C144.366 76.3055 145.269 75.9055 146.211 75.9055H256.078C257.02 75.9055 257.923 76.3055 258.588 77.0176C259.254 77.7296 259.628 78.6954 259.628 79.7024C259.628 80.7094 259.254 81.6751 258.588 82.3872C257.923 83.0992 257.02 83.4993 256.078 83.4993Z" fill="#CCCCCC"/>
<path d="M177.601 54.523H114.446C113.505 54.5217 112.603 54.1212 111.939 53.4092C111.274 52.6973 110.9 51.7323 110.9 50.7261C110.9 49.7199 111.274 48.7549 111.939 48.0429C112.603 47.331 113.505 46.9304 114.446 46.9292H177.601C178.068 46.9286 178.53 47.0263 178.961 47.2169C179.392 47.4074 179.784 47.687 180.114 48.0396C180.445 48.3923 180.706 48.811 180.885 49.272C181.064 49.733 181.156 50.2271 181.156 50.7261C181.156 51.2251 181.064 51.7192 180.885 52.1802C180.706 52.6411 180.445 53.0599 180.114 53.4125C179.784 53.7652 179.392 54.0448 178.961 54.2353C178.53 54.4258 178.068 54.5236 177.601 54.523Z" fill="#CCCCCC"/>
<path d="M212.355 54.7229H194.418C193.476 54.7229 192.573 54.3229 191.907 53.6108C191.242 52.8988 190.868 51.933 190.868 50.926C190.868 49.919 191.242 48.9533 191.907 48.2412C192.573 47.5292 193.476 47.1292 194.418 47.1292H212.355C213.297 47.1292 214.2 47.5292 214.866 48.2412C215.531 48.9533 215.905 49.919 215.905 50.926C215.905 51.933 215.531 52.8988 214.866 53.6108C214.2 54.3229 213.297 54.7229 212.355 54.7229Z" fill="#CCCCCC"/>
<path d="M132.384 83.4993H114.446C113.505 83.498 112.603 83.0974 111.939 82.3855C111.274 81.6736 110.9 80.7086 110.9 79.7024C110.9 78.6962 111.274 77.7312 111.939 77.0193C112.603 76.3073 113.505 75.9068 114.446 75.9055H132.384C132.85 75.9049 133.312 76.0027 133.744 76.1932C134.175 76.3837 134.567 76.6633 134.897 77.0159C135.227 77.3686 135.489 77.7873 135.668 78.2483C135.846 78.7093 135.938 79.2034 135.938 79.7024C135.938 80.2014 135.846 80.6955 135.668 81.1565C135.489 81.6174 135.227 82.0362 134.897 82.3888C134.567 82.7415 134.175 83.0211 133.744 83.2116C133.312 83.4021 132.85 83.4999 132.384 83.4993Z" fill="#CCCCCC"/>
<path d="M177.601 203.844H114.446C113.505 203.844 112.602 203.444 111.936 202.731C111.27 202.019 110.896 201.054 110.896 200.047C110.896 199.04 111.27 198.074 111.936 197.362C112.602 196.65 113.505 196.25 114.446 196.25H177.601C178.067 196.25 178.529 196.348 178.96 196.539C179.391 196.73 179.782 197.009 180.112 197.362C180.441 197.714 180.703 198.133 180.881 198.594C181.06 199.054 181.151 199.548 181.151 200.047C181.151 200.545 181.06 201.039 180.881 201.5C180.703 201.96 180.441 202.379 180.112 202.731C179.782 203.084 179.391 203.364 178.96 203.555C178.529 203.745 178.067 203.844 177.601 203.844Z" fill="#CCCCCC"/>
<path d="M256.078 203.844H192.923C191.981 203.844 191.078 203.444 190.413 202.731C189.747 202.019 189.373 201.054 189.373 200.047C189.373 199.04 189.747 198.074 190.413 197.362C191.078 196.65 191.981 196.25 192.923 196.25H256.078C256.544 196.25 257.006 196.348 257.437 196.539C257.867 196.73 258.259 197.009 258.588 197.362C258.918 197.714 259.18 198.133 259.358 198.594C259.536 199.054 259.628 199.548 259.628 200.047C259.628 200.545 259.536 201.039 259.358 201.5C259.18 201.96 258.918 202.379 258.588 202.731C258.259 203.084 257.867 203.364 257.437 203.555C257.006 203.745 256.544 203.844 256.078 203.844Z" fill="#CCCCCC"/>
<path d="M256.078 218.232H146.211C145.744 218.232 145.283 218.134 144.852 217.943C144.421 217.752 144.03 217.472 143.7 217.12C143.371 216.767 143.109 216.349 142.931 215.888C142.752 215.427 142.66 214.934 142.66 214.435C142.66 213.936 142.752 213.443 142.931 212.982C143.109 212.521 143.371 212.103 143.7 211.75C144.03 211.398 144.421 211.118 144.852 210.927C145.283 210.736 145.744 210.638 146.211 210.638H256.078C256.545 210.638 257.007 210.735 257.438 210.926C257.869 211.116 258.261 211.396 258.591 211.749C258.921 212.101 259.183 212.52 259.362 212.981C259.541 213.442 259.633 213.936 259.633 214.435C259.633 214.934 259.541 215.428 259.362 215.889C259.183 216.35 258.921 216.769 258.591 217.122C258.261 217.474 257.869 217.754 257.438 217.944C257.007 218.135 256.545 218.233 256.078 218.232Z" fill="#CCCCCC"/>
<path d="M177.601 189.256H114.446C113.505 189.256 112.602 188.856 111.936 188.144C111.27 187.431 110.896 186.466 110.896 185.459C110.896 184.452 111.27 183.486 111.936 182.774C112.602 182.062 113.505 181.662 114.446 181.662H177.601C178.543 181.662 179.446 182.062 180.112 182.774C180.777 183.486 181.151 184.452 181.151 185.459C181.151 186.466 180.777 187.431 180.112 188.144C179.446 188.856 178.543 189.256 177.601 189.256Z" fill="#CCCCCC"/>
<path d="M212.355 189.455H194.418C193.476 189.455 192.573 189.055 191.907 188.343C191.242 187.631 190.868 186.665 190.868 185.658C190.868 184.651 191.242 183.686 191.907 182.974C192.573 182.262 193.476 181.862 194.418 181.862H212.355C213.297 181.862 214.2 182.262 214.866 182.974C215.531 183.686 215.905 184.651 215.905 185.658C215.905 186.665 215.531 187.631 214.866 188.343C214.2 189.055 213.297 189.455 212.355 189.455Z" fill="#CCCCCC"/>
<path d="M132.384 218.232H114.446C113.505 218.232 112.602 217.832 111.936 217.12C111.27 216.408 110.896 215.442 110.896 214.435C110.896 213.428 111.27 212.462 111.936 211.75C112.602 211.038 113.505 210.638 114.446 210.638H132.384C132.85 210.638 133.312 210.735 133.744 210.926C134.175 211.116 134.567 211.396 134.897 211.749C135.227 212.101 135.489 212.52 135.668 212.981C135.846 213.442 135.938 213.936 135.938 214.435C135.938 214.934 135.846 215.428 135.668 215.889C135.489 216.35 135.227 216.769 134.897 217.122C134.567 217.474 134.175 217.754 133.744 217.944C133.312 218.135 132.85 218.233 132.384 218.232Z" fill="#CCCCCC"/>
<path d="M161.107 163.081C159.767 163.084 158.48 162.521 157.526 161.514L133.786 136.441C133.32 135.949 132.95 135.363 132.697 134.717C132.445 134.07 132.314 133.377 132.314 132.676C132.314 131.975 132.445 131.282 132.697 130.636C132.95 129.989 133.32 129.403 133.786 128.911L157.43 103.939C158.415 102.904 159.742 102.326 161.123 102.331C162.504 102.335 163.828 102.922 164.807 103.964C165.787 105.014 166.337 106.438 166.337 107.921C166.337 109.405 165.787 110.828 164.807 111.878L147.237 130.67C146.69 131.256 146.382 132.052 146.382 132.88C146.382 133.709 146.69 134.504 147.237 135.091L164.712 153.78C165.425 154.542 165.911 155.513 166.108 156.571C166.305 157.628 166.205 158.724 165.819 159.72C165.433 160.716 164.779 161.568 163.94 162.166C163.101 162.764 162.115 163.083 161.107 163.081V163.081Z" fill="#F4A710"/>
<path d="M198.936 163.081C197.927 163.083 196.942 162.764 196.103 162.166C195.264 161.568 194.61 160.716 194.224 159.72C193.838 158.724 193.737 157.628 193.935 156.571C194.132 155.513 194.618 154.542 195.331 153.78L212.806 135.091C213.353 134.505 213.661 133.709 213.661 132.881C213.661 132.052 213.353 131.257 212.806 130.67L195.236 111.878C194.75 111.359 194.365 110.742 194.102 110.063C193.839 109.384 193.703 108.656 193.703 107.921C193.703 107.186 193.839 106.459 194.102 105.78C194.365 105.101 194.75 104.484 195.236 103.964C196.215 102.922 197.539 102.335 198.92 102.331C200.301 102.326 201.628 102.904 202.613 103.939L226.257 128.911C226.723 129.403 227.093 129.989 227.346 130.636C227.598 131.282 227.728 131.976 227.728 132.676C227.728 133.377 227.598 134.07 227.346 134.717C227.093 135.363 226.723 135.949 226.257 136.441L202.517 161.514C201.563 162.521 200.276 163.084 198.936 163.081Z" fill="#F4A710"/>
</svg>
