<svg width="40" height="40" viewBox="0 0 40 40" fill="none" xmlns="http://www.w3.org/2000/svg">
<path d="M36 0H4C1.8 0 0.02 2.25 0.02 5L0 35C0 37.75 1.8 40 4 40H36C38.2 40 40 37.75 40 35V5C40 2.25 38.2 0 36 0ZM35.2 10.625L21.06 21.675C20.42 22.175 19.58 22.175 18.94 21.675L4.8 10.625C4.59946 10.4843 4.42384 10.2942 4.28378 10.0661C4.14372 9.83812 4.04212 9.57695 3.98515 9.29843C3.92818 9.01991 3.91701 8.72984 3.95231 8.44577C3.98762 8.1617 4.06867 7.88953 4.19056 7.64575C4.31245 7.40197 4.47265 7.19164 4.66145 7.02749C4.85026 6.86334 5.06374 6.74878 5.28899 6.69075C5.51424 6.63271 5.74657 6.63242 5.97191 6.68987C6.19725 6.74732 6.41093 6.86133 6.6 7.025L20 17.5L33.4 7.025C33.5891 6.86133 33.8027 6.74732 34.0281 6.68987C34.2534 6.63242 34.4858 6.63271 34.711 6.69075C34.9363 6.74878 35.1497 6.86334 35.3385 7.02749C35.5274 7.19164 35.6875 7.40197 35.8094 7.64575C35.9313 7.88953 36.0124 8.1617 36.0477 8.44577C36.083 8.72984 36.0718 9.01991 36.0149 9.29843C35.9579 9.57695 35.8563 9.83812 35.7162 10.0661C35.5762 10.2942 35.4005 10.4843 35.2 10.625Z" fill="white"/>
</svg>
