<svg width="262" height="245" viewBox="0 0 262 245" fill="none" xmlns="http://www.w3.org/2000/svg">
<g clip-path="url(#clip0)">
<path d="M262 122.5C262.023 139.083 258.434 155.496 251.45 170.739L251.016 171.674C239.203 196.804 218.72 217.505 192.841 230.464C166.963 243.424 137.185 247.895 108.269 243.162C107.482 243.032 106.697 242.897 105.912 242.757C97.8094 241.288 89.8747 239.1 82.2161 236.222C80.972 235.754 79.7369 235.27 78.5109 234.769C77.6737 234.428 76.8365 234.076 76.0071 233.714C53.3183 223.881 34.1085 208.187 20.6419 188.483C7.17535 168.778 0.0133196 145.885 0 122.5C0 54.8459 58.6516 0 131 0C203.348 0 262 54.8459 262 122.5Z" fill="#6C63FF"/>
<path opacity="0.2" d="M108.269 243.162C107.482 243.032 106.697 242.897 105.912 242.757C105.401 228.872 103.645 200.374 97.657 170.529C94.3821 154.194 89.8358 137.45 83.53 122.482C81.3696 117.303 78.9021 112.24 76.139 107.318C69.7672 96.0646 62.039 86.5908 52.6675 80.1723L54.0472 78.4109C61.8414 83.753 68.8461 91.2528 75.0615 100.91C76.9257 103.802 78.7163 106.888 80.4333 110.167C82.2743 113.675 84.03 117.399 85.7004 121.34C86.7663 123.848 87.7959 126.443 88.7894 129.125C93.1147 140.77 96.7915 154.056 99.8197 168.985C100.49 172.283 101.128 175.662 101.734 179.122C106.428 205.93 107.842 230.717 108.269 243.162Z" fill="black"/>
<path opacity="0.2" d="M78.5109 234.769C77.6737 234.428 76.8365 234.077 76.0071 233.714C75.1971 225.487 73.7088 215.281 70.9881 205.593C69.7964 201.242 68.2666 196.979 66.4108 192.836C63.3064 186.041 59.2872 180.264 54.0898 176.701L55.4696 174.943C60.9111 178.669 65.1086 184.558 68.3526 191.448C72.0074 199.211 74.4452 208.246 76.0691 216.879C77.2745 223.291 78.0342 229.485 78.5109 234.769Z" fill="black"/>
<path opacity="0.2" d="M39.634 80.1217C46.0745 80.1217 51.2955 75.2394 51.2955 69.2168C51.2955 63.1942 46.0745 58.3119 39.634 58.3119C33.1935 58.3119 27.9724 63.1942 27.9724 69.2168C27.9724 75.2394 33.1935 80.1217 39.634 80.1217Z" fill="black"/>
<path opacity="0.2" d="M43.3893 173.993C49.8298 173.993 55.0509 169.111 55.0509 163.088C55.0509 157.066 49.8298 152.184 43.3893 152.184C36.9488 152.184 31.7278 157.066 31.7278 163.088C31.7278 169.111 36.9488 173.993 43.3893 173.993Z" fill="black"/>
<path opacity="0.2" d="M85.9308 87.5336C83.4579 100.58 88.9169 112.393 88.9169 112.393C88.9169 112.393 98.3852 103.054 100.858 90.0078C103.331 76.9614 97.872 65.1482 97.872 65.1482C97.872 65.1482 88.4037 74.4873 85.9308 87.5336Z" fill="black"/>
<path opacity="0.2" d="M47.1746 118.503C60.4819 123.053 73.8539 120.133 73.8539 120.133C73.8539 120.133 65.6505 109.836 52.3432 105.285C39.0358 100.735 25.6638 103.655 25.6638 103.655C25.6638 103.655 33.8672 113.953 47.1746 118.503Z" fill="black"/>
<path opacity="0.2" d="M44.9181 201.63C54.2454 204.819 63.6314 202.738 63.6314 202.738C63.6314 202.738 57.8947 195.487 48.5673 192.297C39.2399 189.108 29.854 191.189 29.854 191.189C29.854 191.189 35.5907 198.44 44.9181 201.63Z" fill="black"/>
<path d="M130.731 149.627C158.937 149.627 181.802 128.246 181.802 101.87C181.802 75.4949 158.937 54.1133 130.731 54.1133C102.526 54.1133 79.6604 75.4949 79.6604 101.87C79.6604 128.246 102.526 149.627 130.731 149.627Z" fill="#D0CDE1"/>
<path d="M110.782 138.434C110.782 138.434 117.165 166.79 117.165 169.775C117.165 172.759 147.489 186.191 147.489 186.191L174.62 181.714L184.196 154.851C184.196 154.851 168.236 132.465 168.236 123.51L110.782 138.434Z" fill="#D0CDE1"/>
<path d="M251.45 170.739L251.016 171.674C239.203 196.804 218.72 217.505 192.841 230.464C166.963 243.424 137.185 247.895 108.269 243.162C107.482 243.032 106.697 242.897 105.912 242.757C97.8095 241.288 89.8748 239.1 82.2161 236.222C80.972 235.754 79.7369 235.27 78.5109 234.769C77.6737 234.428 76.8366 234.076 76.0072 233.714C68.4893 230.457 61.3193 226.54 54.5937 222.015L48.5398 205.593L51.9427 203.165L58.9423 198.167L66.4108 192.836L68.3526 191.448L97.657 170.529L99.8197 168.985L115.051 158.112L115.055 158.108C115.055 158.108 131.527 183.206 155.468 175.744C179.408 168.282 178.885 146.884 178.885 146.884L251.45 170.739Z" fill="#2F2E41"/>
<path d="M86.4427 63.3941C86.4427 63.3941 102.657 30.5417 133.736 38.123C164.814 45.7043 182.38 57.0763 183.731 68.4483C185.082 79.8203 183.056 96.8783 183.056 96.8783C183.056 96.8783 179.678 73.5025 158.058 78.5568C136.438 83.611 102.657 79.8203 102.657 79.8203L97.2525 125.308C97.2525 125.308 91.172 117.095 84.4159 122.149C77.6597 127.204 64.823 73.5025 86.4427 63.3941Z" fill="#2F2E41"/>
<path d="M82.2161 236.222C80.972 235.754 79.7369 235.27 78.5109 234.769C77.6737 234.428 76.8366 234.076 76.0072 233.714C63.5735 228.323 52.1189 221.144 42.0596 212.44C45.6214 207.902 48.5398 205.593 48.5398 205.593H72.4803L76.0692 216.879L82.2161 236.222Z" fill="#2F2E41"/>
<path d="M230.479 168.282L251.016 171.674C245.52 183.382 238.097 194.213 229.017 203.774L230.479 168.282Z" fill="#2F2E41"/>
</g>
<defs>
<clipPath id="clip0">
<rect width="262" height="245" fill="white"/>
</clipPath>
</defs>
</svg>
