<svg width="40" height="40" viewBox="0 0 40 40" fill="none" xmlns="http://www.w3.org/2000/svg">
<path d="M2.20052 40C0.986328 40 0 39.0137 0 37.7995V2.20052C0 0.986328 0.986328 0 2.20052 0H37.7995C39.0137 0 40 0.986328 40 2.20052V37.7995C40 39.0137 39.0137 40 37.7995 40H2.20052Z" fill="white"/>
<path d="M20.0001 6.66666C12.6466 6.66666 6.66675 12.6465 6.66675 20C6.66675 27.3535 12.6466 33.3333 20.0001 33.3333C27.3536 33.3333 33.3334 27.3535 33.3334 20C33.3334 12.6465 27.3536 6.66666 20.0001 6.66666ZM20.0001 8.66536C26.2696 8.66536 31.3347 13.7305 31.3347 20C31.3347 25.1107 27.9721 29.4141 23.3334 30.8333V27.4251C23.3334 26.1523 22.601 25.0586 21.5398 24.515C23.6296 24.1146 25.3549 22.9329 26.1654 21.3379C26.976 19.7428 26.7742 17.9362 25.6251 16.4811C25.9213 15.5697 26.2501 13.9746 25.4656 12.7181C23.9519 12.7181 22.9753 13.7533 22.5098 14.401C21.7123 14.1374 20.8627 14.0006 20.0001 14.0006C19.1375 14.0006 18.2846 14.1341 17.4871 14.3945C17.0183 13.75 16.045 12.7181 14.5346 12.7181C13.6329 14.1602 14.1895 15.7096 14.489 16.3411C13.2618 17.793 13.0014 19.6289 13.7924 21.263C14.5834 22.8939 16.3282 24.1113 18.4539 24.5182C17.5847 24.9674 16.9304 25.7812 16.7319 26.7708H15.8562C14.9903 26.7708 14.655 26.4193 14.1863 25.8268C13.7273 25.2344 13.2292 24.8372 12.6335 24.6712C12.3113 24.6354 12.0964 24.8796 12.3764 25.0977C13.3236 25.7422 13.3888 26.7969 13.7664 27.487C14.1114 28.1055 14.821 28.6654 15.6186 28.6654H16.6667V30.8333C12.0281 29.4141 8.66545 25.1107 8.66545 20C8.66545 13.7305 13.7305 8.66536 20.0001 8.66536Z" fill="#020B16"/>
</svg>
