<svg width="40" height="37" viewBox="0 0 40 37" fill="none" xmlns="http://www.w3.org/2000/svg">
<path d="M35.7143 0H4.28571C1.91964 0 0 1.77567 0 3.96429V33.0357C0 35.2243 1.91964 37 4.28571 37H35.7143C38.0804 37 40 35.2243 40 33.0357V3.96429C40 1.77567 38.0804 0 35.7143 0ZM24.7589 31.6895C24.0089 31.8134 23.7321 31.3839 23.7321 31.0288C23.7321 30.5828 23.75 28.3033 23.75 26.4616C23.75 25.1732 23.2857 24.3556 22.7411 23.9261C26.0446 23.5875 29.5268 23.1663 29.5268 17.8888C29.5268 16.3857 28.9464 15.6342 28 14.6679C28.1518 14.3127 28.6607 12.8509 27.8482 10.9513C26.6071 10.5962 23.7679 12.4297 23.7679 12.4297C22.5893 12.1241 21.3125 11.9672 20.0536 11.9672C18.7946 11.9672 17.5179 12.1241 16.3393 12.4297C16.3393 12.4297 13.5 10.5962 12.2589 10.9513C11.4464 12.8426 11.9464 14.3045 12.1071 14.6679C11.1607 15.6342 10.7143 16.3857 10.7143 17.8888C10.7143 23.1415 14.0446 23.5875 17.3482 23.9261C16.9196 24.2813 16.5357 24.8924 16.4018 25.7679C15.5536 26.123 13.3839 26.7342 12.0893 24.6199C11.2768 23.315 9.8125 23.2076 9.8125 23.2076C8.36607 23.1911 9.71429 24.05 9.71429 24.05C10.6786 24.4629 11.3571 26.0487 11.3571 26.0487C12.2232 28.5016 16.3661 27.6757 16.3661 27.6757C16.3661 28.8237 16.3839 30.6902 16.3839 31.0288C16.3839 31.3839 16.1161 31.8134 15.3571 31.6895C9.46429 29.8643 5.33929 24.6777 5.33929 18.6156C5.33929 11.0339 11.6071 5.27746 19.8036 5.27746C28 5.27746 34.6429 11.0339 34.6429 18.6156C34.6518 24.6777 30.6518 29.8725 24.7589 31.6895ZM16 26.6433C15.8304 26.6763 15.6696 26.6103 15.6518 26.5029C15.6339 26.379 15.75 26.2717 15.9196 26.2386C16.0893 26.2221 16.25 26.2882 16.2679 26.3955C16.2946 26.5029 16.1786 26.6103 16 26.6433ZM15.1518 26.569C15.1518 26.6763 15.0179 26.7672 14.8393 26.7672C14.6429 26.7837 14.5089 26.6929 14.5089 26.569C14.5089 26.4616 14.6429 26.3708 14.8214 26.3708C14.9911 26.3542 15.1518 26.4451 15.1518 26.569ZM13.9286 26.4781C13.8929 26.5855 13.7143 26.635 13.5625 26.5855C13.3929 26.5525 13.2768 26.4286 13.3125 26.3212C13.3482 26.2138 13.5268 26.1643 13.6786 26.1973C13.8571 26.2469 13.9732 26.3708 13.9286 26.4781ZM12.8304 26.0321C12.75 26.123 12.5804 26.1065 12.4464 25.9826C12.3125 25.8752 12.2768 25.7183 12.3661 25.644C12.4464 25.5531 12.6161 25.5696 12.75 25.6935C12.8661 25.8009 12.9107 25.9661 12.8304 26.0321ZM12.0179 25.2806C11.9375 25.3301 11.7857 25.2806 11.6875 25.1567C11.5893 25.0328 11.5893 24.8924 11.6875 24.8346C11.7857 24.7603 11.9375 24.8181 12.0179 24.942C12.1161 25.0658 12.1161 25.2145 12.0179 25.2806V25.2806ZM11.4375 24.4795C11.3571 24.5538 11.2232 24.5125 11.125 24.4299C11.0268 24.3225 11.0089 24.1987 11.0893 24.1408C11.1696 24.0665 11.3036 24.1078 11.4018 24.1904C11.5 24.2978 11.5179 24.4217 11.4375 24.4795ZM10.8393 23.8683C10.8036 23.9426 10.6875 23.9592 10.5893 23.9013C10.4732 23.8518 10.4196 23.7609 10.4554 23.6866C10.4911 23.6371 10.5893 23.6123 10.7054 23.6536C10.8214 23.7114 10.875 23.8022 10.8393 23.8683Z" fill="white"/>
</svg>
