<svg width="62" height="61" viewBox="0 0 62 61" fill="none" xmlns="http://www.w3.org/2000/svg">
<path d="M31 0C13.8725 0 0 13.994 0 31.2715C0 45.1091 8.87375 56.7968 21.1962 60.9403C22.7463 61.2139 23.3275 60.2757 23.3275 59.4549C23.3275 58.7122 23.2888 56.2495 23.2888 53.6306C15.5 55.0769 13.485 51.7152 12.865 49.9562C12.5162 49.0571 11.005 46.2818 9.6875 45.5391C8.6025 44.9527 7.0525 43.5064 9.64875 43.4673C12.09 43.4282 13.8337 45.7345 14.415 46.6727C17.205 51.4025 21.6613 50.0734 23.4438 49.2526C23.715 47.2199 24.5287 45.8518 25.42 45.07C18.5225 44.2882 11.315 41.591 11.315 29.6297C11.315 26.2289 12.5162 23.4145 14.4925 21.2255C14.1825 20.4437 13.0975 17.2384 14.8025 12.9386C14.8025 12.9386 17.3988 12.1177 23.3275 16.1439C25.8075 15.4403 28.4425 15.0885 31.0775 15.0885C33.7125 15.0885 36.3475 15.4403 38.8275 16.1439C44.7563 12.0786 47.3525 12.9386 47.3525 12.9386C49.0575 17.2384 47.9725 20.4437 47.6625 21.2255C49.6388 23.4145 50.84 26.1898 50.84 29.6297C50.84 41.6301 43.5938 44.2882 36.6963 45.07C37.82 46.0472 38.7887 47.9235 38.7887 50.8552C38.7887 55.0378 38.75 58.3995 38.75 59.4549C38.75 60.2757 39.3312 61.253 40.8813 60.9403C47.0356 58.845 52.3836 54.8554 56.1721 49.533C59.9606 44.2107 61.9989 37.8238 62 31.2715C62 13.994 48.1275 0 31 0Z" fill="white"/>
</svg>
